<?xml version="1.0" encoding="utf-8"?>
<!-- Svg Vector Icons : http://www.onlinewebfonts.com/icon -->
<!DOCTYPE svg PUBLIC "-//W3C//DTD SVG 1.1//EN" "http://www.w3.org/Graphics/SVG/1.1/DTD/svg11.dtd">
<svg version="1.1" xmlns="http://www.w3.org/2000/svg" xmlns:xlink="http://www.w3.org/1999/xlink" x="0px" y="0px" viewBox="0 0 1000 1000" enable-background="new 0 0 1000 1000" xml:space="preserve">
<metadata> Svg Vector Icons : http://www.onlinewebfonts.com/icon </metadata>
<g><path d="M974.7,311c-3.5-0.4-6.8,0.1-9.7,1.5c-2.5-1.4-5.4-2.1-8.5-2.1h-53.2l0.2-192.8H683.3l-54.9-54.8l-40.5,40.6l0.3-73.5H465.5L465,226.4l-37.3,37.4l37.2,38.3v8.2H360.4c-9.6,0-17.5,7.8-17.5,17.4c0,9.5,7.9,17.4,17.5,17.4h591.8l-54.9,403.1H321.2c-0.1-0.5-0.2-1-0.4-1.5L169.1,272.4c-1.3-4-3.9-7.3-7.3-9.4c-3.1-2.9-7.3-4.7-12-4.7l-122.4,0c-9.6,0-17.5,7.7-17.5,17.3c0,9.6,7.8,17.4,17.5,17.4h111.2l148.4,464.1c1,3.2,2.9,5.8,5.3,7.8c1.1,8.9,6.7,18.3,15.5,18.3h595.7c4.5,0,10-2.4,14.6-6c6.6-1.8,11.8-7.3,12.8-14.4l58.9-432.4C991.1,321,984.3,312.3,974.7,311z M500.6,64.9h52.5l-0.5,73.2L500,190.9L500.6,64.9z M728.3,152.5h140.2v157.7h-70.1l22-38.1l8.7-9l-2.2-2.2l1.4-2.5L728.3,152.5z M628.4,112.1l150.1,149.8l-42.9,48.3H523.9l-44.6-48.6L628.4,112.1z"/><path d="M658.8,623.1V483.9c0-9.5-7.9-17.3-17.7-17.3c-9.8,0-17.7,7.8-17.7,17.3v139.2c0,9.5,7.9,17.4,17.7,17.4C650.8,640.5,658.8,632.7,658.8,623.1z"/><path d="M746.6,623.1V483.9c0-9.5-7.9-17.3-17.7-17.3c-9.8,0-17.8,7.8-17.8,17.3v139.2c0,9.5,8,17.4,17.8,17.4C738.7,640.5,746.6,632.7,746.6,623.1z"/><path d="M833.8,623.1V483.9c0-9.5-7.8-17.3-17.4-17.3c-9.6,0-17.4,7.8-17.4,17.3v139.2c0,9.5,7.8,17.4,17.4,17.4C826,640.5,833.8,632.7,833.8,623.1z"/><path d="M395.4,623.1V483.9c0-9.5-7.8-17.3-17.4-17.3c-9.6,0-17.4,7.8-17.4,17.3v139.2c0,9.5,7.8,17.4,17.4,17.4C387.6,640.5,395.4,632.7,395.4,623.1z"/><path d="M483.2,623.1V483.9c0-9.5-7.8-17.3-17.4-17.3c-9.6,0-17.4,7.8-17.4,17.3v139.2c0,9.5,7.8,17.4,17.4,17.4C475.4,640.5,483.2,632.7,483.2,623.1z"/><path d="M571,623.1V483.9c0-9.5-7.9-17.3-17.7-17.3c-9.8,0-17.7,7.8-17.7,17.3v139.2c0,9.5,7.9,17.4,17.7,17.4C563.1,640.5,571,632.7,571,623.1z"/><path d="M423.5,794.5c-49.3,0-89.5,39.4-89.5,87.9c0,48.4,40.2,87.8,89.5,87.8c49.3,0,89.4-39.4,89.4-87.8C513,833.9,472.8,794.5,423.5,794.5z M423.5,935.5c-29.9,0-54.1-23.8-54.1-53.1c0-29.3,24.2-53.2,54.1-53.2c29.8,0,54.1,23.9,54.1,53.2C477.6,911.7,453.3,935.5,423.5,935.5z"/><path d="M812.2,794.5c-49.3,0-89.4,39.4-89.4,87.9c0,48.4,40.1,87.8,89.4,87.8c49.3,0,89.4-39.4,89.4-87.8C901.6,833.9,861.5,794.5,812.2,794.5z M812.2,935.5c-29.8,0-54.1-23.8-54.1-53.1c0-29.3,24.3-53.2,54.1-53.2c29.9,0,54.1,23.9,54.1,53.2C866.3,911.7,842.1,935.5,812.2,935.5z"/></g>
</svg>